<svg width="92" height="45" viewBox="0 0 92 45" fill="none" xmlns="http://www.w3.org/2000/svg">
<path d="M19.5078 38.52V26.1C19.5078 26.1 19.5078 26.1 19.5078 26.04C19.5078 23.4 17.7678 21.12 15.3678 20.34C14.7078 20.1 14.1078 20.04 13.7478 20.04C13.6278 20.04 13.5678 20.04 13.4478 20.04H7.3278V44.64H13.4478C13.5078 44.64 13.6278 44.64 13.7478 44.64C13.8678 44.64 14.1078 44.64 14.4078 44.52C14.7078 44.46 15.0678 44.4 15.4278 44.22C17.8278 43.38 19.5078 41.16 19.5078 38.52ZM13.4478 1.26H7.3278V19.62H13.4478C15.0678 19.62 16.3278 18.3 16.3278 16.74V4.2C16.3278 4.02 16.3278 3.96 16.3278 3.84C16.2078 2.7 15.4278 1.74 14.4078 1.44C14.0478 1.26 13.7478 1.26 13.5678 1.26C13.5078 1.26 13.5078 1.26 13.4478 1.26ZM15.3678 19.8C21.4278 20.7 26.1078 25.92 26.1078 32.34C26.1078 39.3 20.4678 44.94 13.5678 45C13.5078 45 13.4478 45 13.4478 45H7.2078H4.0278H0.907798C0.907798 45 0.847798 45 0.847798 44.94C0.727798 44.94 0.727798 44.82 0.727798 44.82V1.02C0.727798 1.02 0.727798 0.959998 0.847798 0.959998C0.847798 0.899999 0.907798 0.899999 0.907798 0.899999H4.0278H13.4478C18.6678 0.899999 22.9278 5.16 22.9278 10.44C22.9278 15.06 19.7478 18.9 15.3678 19.8ZM36.3889 0.959998C36.4489 0.959998 36.4489 1.02 36.4489 1.02V44.82C36.4489 44.82 36.4489 44.94 36.3889 44.94C36.3889 45 36.3289 45 36.3289 45H30.0289C30.0289 45 29.9689 45 29.9689 44.94C29.8489 44.94 29.8489 44.82 29.8489 44.82V1.02C29.8489 1.02 29.8489 0.959998 29.9689 0.959998C29.9689 0.899999 30.0289 0.899999 30.0289 0.899999H36.3289C36.3289 0.899999 36.3889 0.899999 36.3889 0.959998ZM46.82 44.64H62.3C62.36 44.64 62.42 44.7 62.42 44.82C62.42 44.94 62.36 45 62.3 45H46.7H43.52H40.4C40.4 45 40.34 45 40.34 44.94C40.22 44.94 40.22 44.82 40.22 44.82V1.02C40.22 1.02 40.22 0.959998 40.34 0.959998C40.34 0.899999 40.4 0.899999 40.4 0.899999H43.52H46.7H62.3C62.36 0.899999 62.42 0.959998 62.42 1.02C62.42 1.2 62.36 1.26 62.3 1.26H46.82V22.8H56.06C56.12 22.8 56.24 22.86 56.24 22.92C56.24 23.04 56.12 23.1 56.06 23.1H46.82V44.64ZM91.557 1.02V44.82V44.94H91.497C91.497 44.94 91.497 44.94 91.497 45C91.377 45 91.377 45 91.377 45H85.077C85.017 45 85.017 44.94 84.957 44.94L66.597 1.92V44.82C66.597 44.94 66.477 45 66.357 45C66.297 45 66.177 44.94 66.177 44.82V1.02V0.959998C66.177 0.959998 66.177 0.959998 66.297 0.959998V0.899999C66.357 0.899999 66.357 0.899999 66.357 0.899999H69.477H72.657C72.717 0.899999 72.717 0.959998 72.777 0.959998L91.197 43.92V1.02C91.197 0.959998 91.257 0.899999 91.377 0.899999C91.497 0.899999 91.557 0.959998 91.557 1.02Z" fill="black"/>
</svg>
