<svg width="16" height="16" viewBox="0 0 16 16" fill="none" xmlns="http://www.w3.org/2000/svg">
<path d="M15.9236 10.7986L14.105 4.55366C13.7166 3.21778 12.8704 2.04404 11.7011 1.21925C10.5317 0.394458 9.10642 -0.0339856 7.65199 0.00210722C6.19756 0.0382 4.79759 0.536755 3.6749 1.41842C2.5522 2.30009 1.7713 3.51421 1.45648 4.86754L0.0498463 10.8986C-0.0182171 11.1908 -0.0165569 11.4938 0.0547043 11.7853C0.125966 12.0768 0.265009 12.3493 0.461577 12.5828C0.658145 12.8162 0.907221 13.0047 1.19043 13.1342C1.47364 13.2637 1.78375 13.3309 2.09789 13.331H4.62087C4.78141 14.0842 5.21033 14.7614 5.83497 15.2479C6.4596 15.7343 7.24153 16 8.04826 16C8.855 16 9.63693 15.7343 10.2616 15.2479C10.8862 14.7614 11.3151 14.0842 11.4757 13.331H13.9028C14.226 13.3309 14.5449 13.2596 14.8344 13.1227C15.124 12.9859 15.3764 12.7871 15.5721 12.542C15.7678 12.2969 15.9014 12.012 15.9624 11.7096C16.0235 11.4072 16.0098 11.0954 15.9236 10.7986ZM8.04826 14.6638C7.61581 14.6621 7.19447 14.5332 6.84189 14.2946C6.48931 14.056 6.22271 13.7195 6.07856 13.331H10.018C9.87382 13.7195 9.60721 14.056 9.25463 14.2946C8.90205 14.5332 8.48072 14.6621 8.04826 14.6638ZM14.4589 11.7349C14.3936 11.8174 14.309 11.8841 14.2119 11.9298C14.1147 11.9755 14.0077 11.9989 13.8993 11.9982H2.09789C1.99315 11.9982 1.88975 11.9757 1.79533 11.9325C1.70091 11.8894 1.61787 11.8265 1.55234 11.7487C1.48681 11.6708 1.44047 11.58 1.41674 11.4828C1.393 11.3856 1.39248 11.2846 1.41521 11.1871L2.82184 5.1561C3.0697 4.09397 3.6831 3.14126 4.56453 2.44942C5.44597 1.75758 6.54484 1.36632 7.68648 1.33782C8.82812 1.30933 9.94699 1.64524 10.8652 2.29216C11.7835 2.93909 12.4484 3.85989 12.7543 4.90819L14.5729 11.1532C14.6026 11.2519 14.6078 11.3559 14.588 11.4569C14.5682 11.5578 14.524 11.6531 14.4589 11.7349Z" fill="black"/>
</svg>
