<svg width="98" height="48" viewBox="0 0 98 48" fill="none" xmlns="http://www.w3.org/2000/svg">
<path d="M21.016 40.3736V27.1256C21.016 27.1256 21.016 27.1256 21.016 27.0616C21.016 24.2456 19.16 21.8136 16.6 20.9816C15.896 20.7256 15.256 20.6616 14.872 20.6616C14.744 20.6616 14.68 20.6616 14.552 20.6616H8.024V46.9016H14.552C14.616 46.9016 14.744 46.9016 14.872 46.9016C15 46.9016 15.256 46.9016 15.576 46.7736C15.896 46.7096 16.28 46.6456 16.664 46.4536C19.224 45.5576 21.016 43.1896 21.016 40.3736ZM14.552 0.629642H8.024V20.2136H14.552C16.28 20.2136 17.624 18.8056 17.624 17.1416V3.76564C17.624 3.57364 17.624 3.50964 17.624 3.38164C17.496 2.16564 16.664 1.14164 15.576 0.821644C15.192 0.629642 14.872 0.629642 14.68 0.629642C14.616 0.629642 14.616 0.629642 14.552 0.629642ZM16.6 20.4056C23.064 21.3656 28.056 26.9336 28.056 33.7816C28.056 41.2056 22.04 47.2216 14.68 47.2856C14.616 47.2856 14.552 47.2856 14.552 47.2856H7.896H4.504H1.176C1.176 47.2856 1.112 47.2856 1.112 47.2216C0.984 47.2216 0.984 47.0936 0.984 47.0936V0.373642C0.984 0.373642 0.984 0.309643 1.112 0.309643C1.112 0.245644 1.176 0.245644 1.176 0.245644H4.504H14.552C20.12 0.245644 24.664 4.78964 24.664 10.4216C24.664 15.3496 21.272 19.4456 16.6 20.4056ZM39.0225 0.309643C39.0865 0.309643 39.0865 0.373642 39.0865 0.373642V47.0936C39.0865 47.0936 39.0865 47.2216 39.0225 47.2216C39.0225 47.2856 38.9585 47.2856 38.9585 47.2856H32.2385C32.2385 47.2856 32.1745 47.2856 32.1745 47.2216C32.0465 47.2216 32.0465 47.0936 32.0465 47.0936V0.373642C32.0465 0.373642 32.0465 0.309643 32.1745 0.309643C32.1745 0.245644 32.2385 0.245644 32.2385 0.245644H38.9585C38.9585 0.245644 39.0225 0.245644 39.0225 0.309643ZM50.149 46.9016H66.661C66.725 46.9016 66.789 46.9656 66.789 47.0936C66.789 47.2216 66.725 47.2856 66.661 47.2856H50.021H46.629H43.301C43.301 47.2856 43.237 47.2856 43.237 47.2216C43.109 47.2216 43.109 47.0936 43.109 47.0936V0.373642C43.109 0.373642 43.109 0.309643 43.237 0.309643C43.237 0.245644 43.301 0.245644 43.301 0.245644H46.629H50.021H66.661C66.725 0.245644 66.789 0.309643 66.789 0.373642C66.789 0.565643 66.725 0.629642 66.661 0.629642H50.149V23.6056H60.005C60.069 23.6056 60.197 23.6696 60.197 23.7336C60.197 23.8616 60.069 23.9256 60.005 23.9256H50.149V46.9016ZM97.8685 0.373642V47.0936V47.2216H97.8045C97.8045 47.2216 97.8045 47.2216 97.8045 47.2856C97.6765 47.2856 97.6765 47.2856 97.6765 47.2856H90.9565C90.8925 47.2856 90.8925 47.2216 90.8285 47.2216L71.2445 1.33364V47.0936C71.2445 47.2216 71.1165 47.2856 70.9885 47.2856C70.9245 47.2856 70.7965 47.2216 70.7965 47.0936V0.373642V0.309643C70.7965 0.309643 70.7965 0.309643 70.9245 0.309643V0.245644C70.9885 0.245644 70.9885 0.245644 70.9885 0.245644H74.3165H77.7085C77.7725 0.245644 77.7725 0.309643 77.8365 0.309643L97.4845 46.1336V0.373642C97.4845 0.309643 97.5485 0.245644 97.6765 0.245644C97.8045 0.245644 97.8685 0.309643 97.8685 0.373642Z" fill="white"/>
</svg>
