<svg width="56" height="557" viewBox="0 0 56 557" fill="none" xmlns="http://www.w3.org/2000/svg">
<path d="M41.032 81.176V54.68C41.032 54.68 41.032 54.68 41.032 54.552C41.032 48.92 37.32 44.056 32.2 42.392C30.792 41.88 29.512 41.752 28.744 41.752C28.488 41.752 28.36 41.752 28.104 41.752H15.048V94.232H28.104C28.232 94.232 28.488 94.232 28.744 94.232C29 94.232 29.512 94.232 30.152 93.976C30.792 93.848 31.56 93.72 32.328 93.336C37.448 91.544 41.032 86.808 41.032 81.176ZM28.104 1.688H15.048V40.856H28.104C31.56 40.856 34.248 38.04 34.248 34.712V7.96C34.248 7.576 34.248 7.448 34.248 7.19199C33.992 4.75999 32.328 2.712 30.152 2.072C29.384 1.688 28.744 1.688 28.36 1.688C28.232 1.688 28.232 1.688 28.104 1.688ZM32.2 41.24C45.128 43.16 55.112 54.296 55.112 67.992C55.112 82.84 43.08 94.872 28.36 95C28.232 95 28.104 95 28.104 95H14.792H8.008H1.352C1.352 95 1.224 95 1.224 94.872C0.968 94.872 0.968 94.616 0.968 94.616V1.17599C0.968 1.17599 0.968 1.048 1.224 1.048C1.224 0.919998 1.352 0.919998 1.352 0.919998H8.008H28.104C39.24 0.919998 48.328 10.008 48.328 21.272C48.328 31.128 41.544 39.32 32.2 41.24ZM14.92 155.048C15.048 155.048 15.048 155.176 15.048 155.176V248.616C15.048 248.616 15.048 248.872 14.92 248.872C14.92 249 14.792 249 14.792 249H1.352C1.352 249 1.224 249 1.224 248.872C0.968 248.872 0.968 248.616 0.968 248.616V155.176C0.968 155.176 0.968 155.048 1.224 155.048C1.224 154.92 1.352 154.92 1.352 154.92H14.792C14.792 154.92 14.92 154.92 14.92 155.048ZM15.048 402.232H48.072C48.2 402.232 48.328 402.36 48.328 402.616C48.328 402.872 48.2 403 48.072 403H14.792H8.008H1.352C1.352 403 1.224 403 1.224 402.872C0.968 402.872 0.968 402.616 0.968 402.616V309.176C0.968 309.176 0.968 309.048 1.224 309.048C1.224 308.92 1.352 308.92 1.352 308.92H8.008H14.792H48.072C48.2 308.92 48.328 309.048 48.328 309.176C48.328 309.56 48.2 309.688 48.072 309.688H15.048V355.64H34.76C34.888 355.64 35.144 355.768 35.144 355.896C35.144 356.152 34.888 356.28 34.76 356.28H15.048V402.232ZM55.112 463.176V556.616V556.872H54.984C54.984 556.872 54.984 556.872 54.984 557C54.728 557 54.728 557 54.728 557H41.288C41.16 557 41.16 556.872 41.032 556.872L1.864 465.096V556.616C1.864 556.872 1.608 557 1.352 557C1.224 557 0.968 556.872 0.968 556.616V463.176V463.048C0.968 463.048 0.968 463.048 1.224 463.048V462.92C1.352 462.92 1.352 462.92 1.352 462.92H8.008H14.792C14.92 462.92 14.92 463.048 15.048 463.048L54.344 554.696V463.176C54.344 463.048 54.472 462.92 54.728 462.92C54.984 462.92 55.112 463.048 55.112 463.176Z" fill="white"/>
</svg>
