<svg width="27" height="29" viewBox="0 0 27 29" fill="none" xmlns="http://www.w3.org/2000/svg">
<path d="M21.9916 9.49512C21.9916 7.13419 21.1125 4.86998 19.5473 3.20056C17.9822 1.53113 15.8595 0.593262 13.6462 0.593262C11.4328 0.593262 9.3101 1.53113 7.74501 3.20056C6.17993 4.86998 5.30067 7.13419 5.30067 9.49512C5.30067 19.8807 1.12793 22.8479 1.12793 22.8479H26.1644C26.1644 22.8479 21.9916 19.8807 21.9916 9.49512Z" stroke="black" stroke-linecap="round" stroke-linejoin="round"/>
<path d="M16.0528 27.0206C15.8083 27.4422 15.4573 27.7922 15.0349 28.0353C14.6126 28.2786 14.1339 28.4067 13.6465 28.4067C13.1591 28.4067 12.6804 28.2786 12.2581 28.0353C11.8358 27.7922 11.4848 27.4422 11.2402 27.0206" stroke="black" stroke-linecap="round" stroke-linejoin="round"/>
</svg>
