<svg width="37" height="37" viewBox="0 0 37 37" fill="none" xmlns="http://www.w3.org/2000/svg">
<path d="M34.9182 11.4182V26.0304C34.9182 31.0741 30.8294 35.163 25.7856 35.163H11.1735C6.1297 35.163 2.04089 31.0741 2.04089 26.0304V11.4182C2.04089 6.37445 6.1297 2.28564 11.1735 2.28564H25.7856C30.8294 2.28564 34.9182 6.37445 34.9182 11.4182Z" stroke="white" stroke-width="3" stroke-linecap="round" stroke-linejoin="round"/>
<path d="M9.34686 27.8572V21.4643V15.0715" fill="white"/>
<path d="M9.34686 27.8572V21.4643V15.0715" stroke="white" stroke-width="3" stroke-linecap="round" stroke-linejoin="round"/>
<path d="M16.6528 27.8572V21.921M16.6528 21.921V15.0715M16.6528 21.921C16.6528 15.0715 27.6119 15.0715 27.6119 21.921V27.8572" stroke="white" stroke-width="3" stroke-linecap="round" stroke-linejoin="round"/>
<path d="M9.34686 9.61038L9.36513 9.59009L9.34686 9.61038Z" fill="white"/>
<path d="M9.34686 9.61038L9.36513 9.59009" stroke="white" stroke-width="3" stroke-linecap="round" stroke-linejoin="round"/>
</svg>
