<svg width="16" height="13" viewBox="0 0 16 13" fill="none" xmlns="http://www.w3.org/2000/svg">
<path d="M9.79375 0.525176C10.6063 0.66445 11.1344 1.34207 10.9719 2.03843L10.9 2.34376C10.7344 3.05888 10.4281 3.73917 10 4.35787H14.5C15.3281 4.35787 16 4.93371 16 5.64347C16 6.13896 15.6719 6.57017 15.1906 6.78444C15.5313 7.02013 15.75 7.38171 15.75 7.78614C15.75 8.41287 15.225 8.93514 14.5344 9.04763C14.6719 9.24315 14.75 9.47081 14.75 9.71453C14.75 10.285 14.3156 10.7698 13.7156 10.9359C13.7375 11.0242 13.75 11.118 13.75 11.2144C13.75 11.9242 13.0781 12.5 12.25 12.5H9.20312C8.60938 12.5 8.03125 12.35 7.5375 12.0688L6.33438 11.3805C5.5 10.9037 5 10.1002 5 9.24047V6.26216C5 5.48009 5.41563 4.74355 6.125 4.25342L6.35625 4.09539C7.18438 3.52759 7.75 2.72944 7.95625 1.84024L8.02813 1.53491C8.19063 0.838541 8.98125 0.385903 9.79375 0.525176ZM1 4.7864H3C3.55313 4.7864 4 5.1694 4 5.64347V11.6429C4 12.117 3.55313 12.5 3 12.5H1C0.446875 12.5 0 12.117 0 11.6429V5.64347C0 5.1694 0.446875 4.7864 1 4.7864Z" fill="black"/>
</svg>
