<svg width="32" height="32" viewBox="0 0 32 32" fill="none" xmlns="http://www.w3.org/2000/svg">
<path d="M23.5149 30H2.99511C2.44553 30 2 29.5648 2 29.0278V13.1485C2 12.6116 2.44553 12.1763 2.99511 12.1763H7.58524C8.75039 12.1763 9.8301 11.5791 10.4296 10.603L14.9248 3.2833C15.8948 1.70391 18.1794 1.55377 19.3572 2.99204C19.9123 3.66997 20.0912 4.57104 19.8358 5.40261L18.1401 10.9248C17.9486 11.5485 18.4267 12.1763 19.0933 12.1763H26.6811C28.8682 12.1763 30.4567 14.2082 29.8812 16.2696L26.715 27.6119C26.3214 29.022 25.0107 30 23.5149 30Z" stroke="white" stroke-width="2.24" stroke-linecap="round"/>
</svg>
