<svg width="24" height="24" viewBox="0 0 24 24" fill="none" xmlns="http://www.w3.org/2000/svg">
<path d="M23.9999 12C23.9999 18.6274 18.6273 24 11.9999 24C5.37246 24 -0.00012207 18.6274 -0.00012207 12C-0.00012207 5.37258 5.37246 0 11.9999 0C18.6273 0 23.9999 5.37258 23.9999 12Z" fill="#FDFDFD"/>
<path d="M18.4681 8.90589C18.3913 8.63365 18.2406 8.38539 18.0312 8.18594C17.8218 7.9865 17.5609 7.84287 17.2748 7.76943C16.2216 7.5 11.9999 7.5 11.9999 7.5C11.9999 7.5 7.77811 7.5 6.72493 7.76799C6.43869 7.8412 6.17774 7.98475 5.96828 8.18423C5.75882 8.38371 5.60823 8.6321 5.53163 8.90446C5.24988 9.90764 5.24988 12 5.24988 12C5.24988 12 5.24988 14.0924 5.53163 15.0941C5.68682 15.6473 6.14486 16.083 6.72493 16.2306C7.77811 16.5 11.9999 16.5 11.9999 16.5C11.9999 16.5 16.2216 16.5 17.2748 16.2306C17.8564 16.083 18.3129 15.6473 18.4681 15.0941C18.7499 14.0924 18.7499 12 18.7499 12C18.7499 12 18.7499 9.90764 18.4681 8.90589ZM10.6589 13.9204V10.0796L14.1545 11.9857L10.6589 13.9204Z" fill="black"/>
</svg>
