<svg width="24" height="24" viewBox="0 0 24 24" fill="none" xmlns="http://www.w3.org/2000/svg">
<path d="M23.9999 12C23.9999 18.6274 18.6273 24 11.9999 24C5.37246 24 -0.00012207 18.6274 -0.00012207 12C-0.00012207 5.37258 5.37246 0 11.9999 0C18.6273 0 23.9999 5.37258 23.9999 12Z" fill="#FDFDFD"/>
<path d="M8.67564 7.33393C8.67546 7.68753 8.53434 8.02658 8.28331 8.27649C8.03228 8.5264 7.69192 8.6667 7.33709 8.66652C6.98226 8.66634 6.64204 8.5257 6.39126 8.27555C6.14049 8.02538 5.9997 7.6862 5.99988 7.33259C6.00006 6.97899 6.14118 6.63994 6.39221 6.39003C6.64323 6.14012 6.9836 5.99982 7.33843 6C7.69326 6.00018 8.03348 6.14081 8.28426 6.39097C8.53503 6.64113 8.67582 6.98032 8.67564 7.33393ZM8.71578 9.6538H6.04001V18H8.71578V9.6538ZM12.9435 9.6538H10.2811V18H12.9167V13.6202C12.9167 11.1804 16.1076 10.9537 16.1076 13.6202V18H18.7499V12.7136C18.7499 8.60052 14.0272 8.75385 12.9167 10.7737L12.9435 9.6538Z" fill="black"/>
</svg>
