<svg width="37" height="37" viewBox="0 0 37 37" fill="none" xmlns="http://www.w3.org/2000/svg">
<path d="M2 26.0304V11.4182C2 6.37445 6.08881 2.28564 11.1326 2.28564H25.7447C30.7885 2.28564 34.8773 6.37445 34.8773 11.4182V26.0304C34.8773 31.0741 30.7885 35.163 25.7447 35.163H11.1326C6.08881 35.163 2 31.0741 2 26.0304Z" fill="black" stroke="white" stroke-width="3"/>
<path d="M18.4386 26.0306C22.4736 26.0306 25.7447 22.7595 25.7447 18.7245C25.7447 14.6895 22.4736 11.4185 18.4386 11.4185C14.4036 11.4185 11.1326 14.6895 11.1326 18.7245C11.1326 22.7595 14.4036 26.0306 18.4386 26.0306Z" fill="white"/>
<path d="M28.4844 8.69705L28.5026 8.67676L28.4844 8.69705Z" fill="white"/>
<path d="M28.4844 8.69705L28.5026 8.67676" stroke="white" stroke-width="3" stroke-linecap="round" stroke-linejoin="round"/>
</svg>
