<svg width="37" height="37" viewBox="0 0 37 37" fill="none" xmlns="http://www.w3.org/2000/svg">
<path d="M2.08179 20.3625V17.0861C2.08179 10.3826 2.08179 7.0308 3.57029 4.87418C5.05881 2.71756 7.40226 2.62421 12.0891 2.4375C14.3101 2.34904 16.5787 2.28564 18.5204 2.28564C20.4622 2.28564 22.7309 2.34904 24.9517 2.4375C29.6386 2.62421 31.9821 2.71756 33.4706 4.87418C34.9591 7.0308 34.9591 10.3826 34.9591 17.0861V20.3625C34.9591 27.0659 34.9591 30.4178 33.4706 32.5742C31.9821 34.7309 29.6387 34.8242 24.9519 35.0111C22.7309 35.0995 20.4622 35.163 18.5204 35.163C16.5787 35.163 14.31 35.0995 12.089 35.0111C7.40218 34.8242 5.05878 34.7309 3.57027 32.5742C2.08179 30.4178 2.08179 27.0659 2.08179 20.3625Z" stroke="white" stroke-width="3"/>
<path d="M21.8075 18.7268L16.054 23.3573V14.0962L21.8075 18.7268Z" fill="white"/>
</svg>
