<svg width="16" height="16" viewBox="0 0 16 16" fill="none" xmlns="http://www.w3.org/2000/svg">
<path d="M15.813 14.8711L11.8369 10.8951C12.9205 9.56987 13.4532 7.87893 13.325 6.17198C13.1967 4.46502 12.4173 2.87267 11.1479 1.72427C9.87853 0.575873 8.21632 -0.0406994 6.50509 0.00208668C4.79386 0.0448727 3.16454 0.743743 1.95414 1.95414C0.743743 3.16454 0.0448727 4.79386 0.00208668 6.50509C-0.0406994 8.21632 0.575873 9.87853 1.72427 11.1479C2.87267 12.4173 4.46502 13.1967 6.17198 13.325C7.87893 13.4532 9.56987 12.9205 10.8951 11.8369L14.8711 15.813C14.9968 15.9344 15.165 16.0015 15.3397 16C15.5143 15.9985 15.6814 15.9284 15.8049 15.8049C15.9284 15.6814 15.9985 15.5143 16 15.3397C16.0015 15.165 15.9344 14.9968 15.813 14.8711ZM6.68251 12.0115C5.62855 12.0115 4.59825 11.6989 3.72191 11.1134C2.84556 10.5278 2.16254 9.69556 1.7592 8.72182C1.35587 7.74808 1.25034 6.6766 1.45595 5.64289C1.66157 4.60917 2.16911 3.65964 2.91437 2.91437C3.65964 2.16911 4.60917 1.66157 5.64289 1.45595C6.6766 1.25034 7.74808 1.35587 8.72182 1.7592C9.69556 2.16254 10.5278 2.84556 11.1134 3.72191C11.6989 4.59825 12.0115 5.62855 12.0115 6.68251C12.0099 8.09535 11.4479 9.44987 10.4489 10.4489C9.44987 11.4479 8.09535 12.0099 6.68251 12.0115Z" fill="black"/>
</svg>
