<svg width="29" height="26" viewBox="0 0 29 26" fill="none" xmlns="http://www.w3.org/2000/svg">
<path d="M27.4593 3.59627C27.6992 3.21481 27.6871 2.72672 27.4287 2.35759C27.1702 1.98846 26.7157 1.81019 26.2752 1.90516L2.76396 6.97402C2.31474 7.07087 1.97026 7.4323 1.89509 7.88565C1.81991 8.33901 2.0293 8.79228 2.42322 9.02893L10.7537 14.0336L12.6073 23.5733C12.6949 24.0245 13.0492 24.3762 13.501 24.4607C13.9527 24.5451 14.4101 24.345 14.6548 23.956L27.4593 3.59627Z" stroke="white" stroke-width="2.24" stroke-linecap="round" stroke-linejoin="round"/>
<path d="M11.0558 12.4546C10.5491 12.8094 10.426 13.5078 10.7808 14.0145C11.1356 14.5212 11.834 14.6443 12.3406 14.2895L27.1536 3.91738C27.6603 3.56259 27.7835 2.86422 27.4287 2.35753C27.0739 1.85083 26.3755 1.72769 25.8688 2.08248L11.0558 12.4546Z" stroke="white" stroke-width="2.24" stroke-linecap="round" stroke-linejoin="round"/>
</svg>
