<svg width="24" height="24" viewBox="0 0 24 24" fill="none" xmlns="http://www.w3.org/2000/svg">
<path d="M23.9999 12C23.9999 18.6274 18.6273 24 11.9999 24C5.37246 24 -0.00012207 18.6274 -0.00012207 12C-0.00012207 5.37258 5.37246 0 11.9999 0C18.6273 0 23.9999 5.37258 23.9999 12Z" fill="#FDFDFD"/>
<path d="M10.0469 18.75H13.0469V12.7425H15.7499L16.0469 9.7575H13.0469V8.25C13.0469 8.05109 13.1259 7.86032 13.2665 7.71967C13.4072 7.57902 13.598 7.5 13.7969 7.5H16.0469V4.5H13.7969C12.8023 4.5 11.8485 4.89509 11.1452 5.59835C10.442 6.30161 10.0469 7.25544 10.0469 8.25V9.7575H8.54688L8.24988 12.7425H10.0469V18.75Z" fill="black"/>
</svg>
