<svg width="24" height="24" viewBox="0 0 24 24" fill="none" xmlns="http://www.w3.org/2000/svg">
<path d="M23.9999 12C23.9999 18.6274 18.6273 24 11.9999 24C5.37246 24 -0.00012207 18.6274 -0.00012207 12C-0.00012207 5.37258 5.37246 0 11.9999 0C18.6273 0 23.9999 5.37258 23.9999 12Z" fill="#FDFDFD"/>
<path d="M12.6167 6.00074C13.0545 5.99906 13.4923 6.00346 13.93 6.01394L14.0464 6.01814C14.1808 6.02294 14.3134 6.02894 14.4736 6.03614C15.112 6.06614 15.5475 6.16693 15.9297 6.31513C16.3257 6.46752 16.6593 6.67392 16.9929 7.0075C17.2979 7.30726 17.5339 7.66985 17.6846 8.07007C17.8328 8.45225 17.9336 8.88844 17.9636 9.52682C17.9708 9.68641 17.9768 9.81961 17.9816 9.954L17.9852 10.0704C17.9959 10.5079 18.0005 10.9455 17.999 11.3832L17.9996 11.8307V12.6167C18.0011 13.0545 17.9965 13.4924 17.9858 13.9301L17.9822 14.0465C17.9774 14.1809 17.9714 14.3135 17.9642 14.4736C17.9342 15.112 17.8322 15.5476 17.6846 15.9298C17.5344 16.3304 17.2983 16.6933 16.9929 16.993C16.6929 17.2979 16.3301 17.534 15.9297 17.6847C15.5475 17.8329 15.112 17.9337 14.4736 17.9637C14.3134 17.9709 14.1808 17.9769 14.0464 17.9817L13.93 17.9853C13.4923 17.996 13.0545 18.0006 12.6167 17.9991L12.1691 17.9997H11.3837C10.9459 18.0012 10.5081 17.9966 10.0704 17.9859L9.95402 17.9823C9.81159 17.9772 9.6692 17.9712 9.52684 17.9643C8.88848 17.9343 8.4529 17.8323 8.07012 17.6847C7.66975 17.5344 7.3071 17.2982 7.00757 16.993C6.70222 16.6931 6.46593 16.3303 6.31521 15.9298C6.16702 15.5476 6.06622 15.112 6.03622 14.4736C6.02954 14.3313 6.02354 14.1889 6.01822 14.0465L6.01522 13.9301C6.00416 13.4924 5.99916 13.0545 6.00022 12.6167V11.3832C5.99855 10.9455 6.00295 10.5079 6.01342 10.0704L6.01762 9.954C6.02242 9.81961 6.02842 9.68641 6.03562 9.52682C6.06562 8.88784 6.16642 8.45285 6.31461 8.07007C6.46542 7.66965 6.70217 7.30716 7.00817 7.0081C7.30749 6.70257 7.66992 6.46607 8.07012 6.31513C8.4529 6.16693 8.88788 6.06614 9.52684 6.03614L9.95402 6.01814L10.0704 6.01514C10.5079 6.00408 10.9455 5.99908 11.3831 6.00014L12.6167 6.00074ZM11.9999 9.00064C11.6024 8.99501 11.2078 9.06845 10.839 9.21667C10.4701 9.36489 10.1344 9.58494 9.85133 9.86404C9.56827 10.1431 9.34349 10.4757 9.19007 10.8424C9.03665 11.2092 8.95765 11.6027 8.95765 12.0002C8.95765 12.3978 9.03665 12.7913 9.19007 13.158C9.34349 13.5248 9.56827 13.8573 9.85133 14.1364C10.1344 14.4155 10.4701 14.6356 10.839 14.7838C11.2078 14.932 11.6024 15.0055 11.9999 14.9998C12.7955 14.9998 13.5585 14.6838 14.1211 14.1212C14.6837 13.5586 14.9998 12.7956 14.9998 11.9999C14.9998 11.2043 14.6837 10.4413 14.1211 9.87869C13.5585 9.3161 12.7955 9.00064 11.9999 9.00064ZM11.9999 10.2006C12.239 10.1962 12.4766 10.2395 12.6988 10.3279C12.9209 10.4164 13.1233 10.5482 13.2939 10.7157C13.4646 10.8832 13.6001 11.0831 13.6927 11.3036C13.7853 11.5241 13.8329 11.7608 13.833 11.9999C13.833 12.2391 13.7854 12.4758 13.6929 12.6963C13.6004 12.9169 13.4649 13.1168 13.2943 13.2843C13.1237 13.4519 12.9215 13.5838 12.6993 13.6723C12.4772 13.7608 12.2396 13.8042 12.0005 13.7999C11.5232 13.7999 11.0653 13.6102 10.7278 13.2727C10.3902 12.9351 10.2006 12.4773 10.2006 11.9999C10.2006 11.5226 10.3902 11.0647 10.7278 10.7272C11.0653 10.3896 11.5232 10.2 12.0005 10.2L11.9999 10.2006ZM15.1498 8.10067C14.9562 8.10841 14.7732 8.19075 14.6389 8.33044C14.5047 8.47013 14.4298 8.65633 14.4298 8.85004C14.4298 9.04375 14.5047 9.22995 14.6389 9.36964C14.7732 9.50933 14.9562 9.59167 15.1498 9.59942C15.3487 9.59942 15.5394 9.5204 15.6801 9.37975C15.8207 9.23911 15.8997 9.04835 15.8997 8.84944C15.8997 8.65054 15.8207 8.45978 15.6801 8.31913C15.5394 8.17848 15.3487 8.09947 15.1498 8.09947V8.10067Z" fill="black"/>
</svg>
